# AST/ASF file generated using VICON BodyLanguage
# -----------------------------------------------
:version 1.10
:name VICON
:units
  mass 1.0
  length 0.45
  angle deg
:documentation
   .ast/.asf automatically generated from VICON data using
   VICON BodyBuilder and BodyLanguage model FoxedUp or BRILLIANT.MOD
:root
   order TX TY TZ RX RY RZ
   axis XYZ
   position 0 0 0  
   orientation 0 0 0 
:bonedata
  begin
     id 1 
     name lhipjoint
     direction 0.635376 -0.686425 0.353719 
     length 2.47244 
     axis 0 0 0  XYZ
  end
  begin
     id 2 
     name lfemur
     direction 0.34202 -0.939693 0  
     length 7.25268  
     axis 0 0 20  XYZ
    dof rx ry rz
    limits (-160.0 20.0)
           (-70.0 70.0)
           (-60.0 70.0)
  end
  begin
     id 3 
     name ltibia
     direction 0.34202 -0.939693 0   
     length 7.6767   
     axis 0 0 20   XYZ
    dof rx
    limits (-10.0 170.0)
  end
  begin
     id 4 
     name lfoot
     direction 0.0803374 -0.220725 0.972022   
     length 2.22945   
     axis -90 7.62852e-016 20   XYZ
    dof rx rz
    limits (-45.0 90.0)
           (-70.0 20.0)
  end
  begin
     id 5 
     name ltoes
     direction 1.53579e-011 -4.21994e-011 1   
     length 1.11848   
     axis -90 7.62852e-016 20   XYZ
    dof rx
    limits (-90.0 20.0)
  end
  begin
     id 6 
     name rhipjoint
     direction -0.664428 -0.664335 0.342336   
     length 2.55466  
     axis 0 0 0  XYZ 
  end
  begin
     id 7 
     name rfemur
     direction -0.34202 -0.939693 0   
     length 6.83172   
     axis 0 0 -20   XYZ
    dof rx ry rz
    limits (-160.0 20.0)
           (-70.0 70.0)
           (-70.0 60.0)
  end
  begin
     id 8 
     name rtibia
     direction -0.34202 -0.939693 0   
     length 7.62692   
     axis 0 0 -20   XYZ
    dof rx
    limits (-10.0 170.0)
 end
 begin
     id 9 
     name rfoot
     direction -0.0949276 -0.260811 0.960711   
     length 2.19684  
     axis -90 -7.62852e-016 -20   XYZ
    dof rx rz
    limits (-45.0 90.0)
           (-20.0 70.0)
  end
  begin
     id 10 
     name rtoes
     direction -1.53543e-011 -4.2183e-011 1   
     length 1.09848   
     axis -90 -7.62852e-016 -20   XYZ
    dof rx
    limits (-90.0 20.0)
  end
  begin
     id 11 
     name lowerback
     direction 0.0118782 0.999815 -0.0151555   
     length 2.15772   
     axis 0 0 0   XYZ
    dof rx ry rz
    limits (-20.0 45.0)
           (-30.0 30.0)
           (-30.0 30.0)
  end
  begin
     id 12 
     name upperback
     direction 0.00130825 0.999065 0.0432113   
     length 2.14863   
     axis 0 0 0   XYZ
    dof rx ry rz
    limits (-20.0 45.0)
           (-30.0 30.0)
           (-30.0 30.0)
  end
  begin
     id 13 
     name thorax
     direction -0.00347005 0.998773 0.0494011   
     length 2.14936   
     axis 0 0 0   XYZ
    dof rx ry rz
    limits (-20.0 45.0)
           (-30.0 30.0)
           (-30.0 30.0)
  end
  begin
     id 14 
     name lowerneck
     direction -0.0262159 0.99424 0.103921   
     length 1.69373   
     axis 0 0 0   XYZ
    dof rx ry rz
    limits (-20.0 45.0)
           (-30.0 30.0)
           (-30.0 30.0)
  end
  begin
     id 15 
     name upperneck
     direction 0.0353511 0.977394 -0.20845   
     length 1.70857   
     axis 0 0 0   XYZ
    dof rx ry rz
    limits (-20.0 45.0)
           (-30.0 30.0)
           (-30.0 30.0)
  end
  begin
     id 16
     name head
     direction 0.0139214 0.996594 -0.0812836  
     length 1.72777  
     axis 0 0 0   XYZ
    dof rx ry rz
    limits (-20.0 45.0)
           (-30.0 30.0)
           (-30.0 30.0)
  end
  begin
     id 17 
     name lclavicle
     direction 0.841247 0.537205 -0.0609508  
     length 3.55371  
     axis 0 0 0   XYZ
    dof ry rz
    limits (-20.0 10.0)
           (0.0 20.0)
  end
  begin
     id 18 
     name lhumerus
     direction 1 -4.48964e-011 1.60116e-018   
     length 4.91377   
     axis -180 -30 -90   XYZ
    dof rx ry rz
    limits (-60.0 90.0)
           (-90.0 90.0)
           (-90.0 90.0)
  end
  begin
     id 19
     name lradius
     direction 1 -4.48989e-011 -8.93847e-027   
     length 3.00291   
     axis -180 -30 -90   XYZ
    dof rx
    limits (-10.0 170.0)
  end
  begin
     id 20
     name lwrist
     direction 1 -4.48932e-011 -7.31504e-027   
     length 1.50145   
     axis 5.74121e-015 90 90   XYZ
    dof ry
    limits (-180.0 0.0)
 end
  begin
     id 21 
     name lhand
     direction 1 -4.48971e-011 -1.46301e-026   
     length 0.450922   
     axis 9.33524e-015 90 90   XYZ
    dof rx rz
    limits (-90.0 90.0)
           (-45.0 45.0)
  end
  begin
     id 22 
     name lfingers
     direction 1 -4.49039e-011 -2.92602e-026   
     length 0.363545   
     axis 1.86705e-014 90 90   XYZ
    dof rx
    limits (0.0 90.0)
  end
  begin
     id 23
     name lthumb
     direction 0.707107 -6.34941e-011 0.707107   
     length 0.52198   
     axis -90 45 2.85299e-015   XYZ
    dof rx rz
    limits (-45.0 45.0)
           (-45.0 45.0)
  end
  begin
     id 24 
     name rclavicle
     direction -0.825079 0.56158 -0.0622297   
     length 3.39909  
     axis 0 0 0   XYZ 
    dof ry rz
    limits (-10.0 20.0)
           (-20.0 0.0)
  end
  begin
     id 25 
     name rhumerus
     direction -1 -4.48965e-011 1.61691e-027  
     length 4.86725   
     axis -180 30 90   XYZ
    dof rx ry rz
    limits (-90.0 60.0)
           (-90.0 90.0)
           (-90.0 90.0)
  end
  begin
     id 26 
     name rradius
     direction -1 -4.48964e-011 -2.25776e-027   
     length 3.17144   
     axis -180 30 90   XYZ
    dof rx
    limits (-10.0 170.0)
  end
  begin
     id 27 
     name rwrist
     direction -1 -4.48961e-011 -7.31504e-027   
     length 1.58572   
     axis 5.74121e-015 -90 -90   XYZ
    dof ry
    limits (-180.0 0.0)
  end
  begin
     id 28
     name rhand
     direction -1 -4.49013e-011 -1.46301e-026   
     length 0.419368   
     axis 9.33524e-015 -90 -90   XYZ
    dof rx rz
    limits (-90.0 90.0)
           (-45.0 45.0)
  end
  begin
     id 29
     name rfingers
     direction -1 -4.489e-011 -2.92602e-026   
     length 0.338105   
     axis 1.86705e-014 -90 -90   XYZ
    dof rx
    limits (0.0 90.0)
  end
  begin
     id 30
     name rthumb
     direction -0.707107 -6.35022e-011 0.707107   
     length 0.485453   
     axis -90 -45 -2.85299e-015   XYZ
    dof rx rz
    limits (-45.0 45.0)
           (-45.0 45.0)
  end
:hierarchy
  begin
    root lhipjoint rhipjoint lowerback
    lhipjoint lfemur
    lfemur ltibia
    ltibia lfoot
    lfoot ltoes
    rhipjoint rfemur
    rfemur rtibia
    rtibia rfoot
    rfoot rtoes
    lowerback upperback
    upperback thorax
    thorax lowerneck lclavicle rclavicle
    lowerneck upperneck
    upperneck head
    lclavicle lhumerus
    lhumerus lradius
    lradius lwrist
    lwrist lhand lthumb
    lhand lfingers
    rclavicle rhumerus
    rhumerus rradius
    rradius rwrist
    rwrist rhand rthumb
    rhand rfingers
  end

#!OML:ASF H:\Swim 2\Project 1\Capture day 1\Session 1\male.ASF
:FULLY-SPECIFIED
:DEGREES
406
root 7.64147 8.83004 12.7592 82.6138 -3.71169 182.585
lowerback 17.2852 1.3198 -0.821322
upperback -13.154 1.42322 3.36341
thorax -26.0077 0.965413 4.11027
lowerneck 7.54224 0.896339 3.37795
upperneck 37.6341 -6.09779 11.2335
head 11.5745 -4.15014 2.69201
rclavicle -1.82882e-014 -1.55052e-014
rhumerus 90.2195 -33.1521 -6.09117
rradius 40.0073
rwrist -35.9323
rhand 9.90592 -4.1968
rfingers 7.12502
rthumb 35.0371 -30.7442
lclavicle -1.82882e-014 -1.55052e-014
lhumerus 5.81694 -27.9852 -39.8686
lradius 51.1505
lwrist 30.48
lhand -3.54459 -10.1288
lfingers 7.12502
lthumb 22.1912 18.6175
rfemur 25.822 9.85999 22.7275
rtibia 22.5906
rfoot 5.59725 -1.85642
rtoes 19.5705
lfemur 12.9396 2.1169 -24.9607
ltibia 41.5053
lfoot -0.267506 -0.936583
ltoes -5.8562
407
root 7.63457 8.83137 12.7647 82.8356 -3.79563 182.617
lowerback 16.9849 1.56372 -0.586173
upperback -13.0387 1.8515 3.30137
thorax -25.6383 1.08234 3.7169
lowerneck 6.67348 0.77679 3.17132
upperneck 38.0335 -6.41935 11.3847
head 11.9435 -4.25539 2.75872
rclavicle 7.95139e-016 1.19271e-014
rhumerus 89.8914 -33.3425 -5.14716
rradius 39.7501
rwrist -35.5551
rhand 9.84608 -4.12051
rfingers 7.12502
rthumb 34.9803 -30.6812
lclavicle 7.95139e-016 1.19271e-014
lhumerus 4.87005 -29.9265 -38.8589
lradius 52.6172
lwrist 31.8288
lhand -2.85678 -10.0339
lfingers 7.12502
lthumb 22.8514 18.6323
rfemur 26.2582 10.0411 22.622
rtibia 22.516
rfoot 5.8808 -1.28558
rtoes 20.7466
lfemur 12.3136 1.91328 -25.1396
ltibia 40.899
lfoot -0.368028 -0.727103
ltoes -5.08928
408
root 7.62725 8.83395 12.7703 83.0611 -3.85496 182.657
lowerback 16.6853 1.79832 -0.325003
upperback -12.9272 2.26835 3.23893
thorax -25.27 1.19388 3.31917
lowerneck 5.82278 0.659652 2.98274
upperneck 38.4246 -6.73221 11.5228
head 12.3137 -4.35598 2.81722
rclavicle 1.03368e-014 1.47101e-014
rhumerus 89.4912 -33.5467 -4.15589
rradius 39.5109
rwrist -35.2607
rhand 9.79127 -4.06377
rfingers 7.12502
rthumb 34.9283 -30.6365
lclavicle 1.03368e-014 1.47101e-014
lhumerus 3.94956 -31.8941 -37.8236
lradius 54.1906
lwrist 33.482
lhand -2.09169 -9.8399
lfingers 7.12502
lthumb 23.5854 18.7337
rfemur 26.6574 10.1855 22.5291
rtibia 22.3965
rfoot 6.28446 -0.785653
rtoes 21.6042
lfemur 11.748 1.62998 -25.3191
ltibia 40.1646
lfoot -0.397767 -0.464021
ltoes -4.29456
409
root 7.61968 8.83785 12.7757 83.2762 -3.89179 182.702
lowerback 16.4008 2.02311 -0.0445848
upperback -12.8144 2.67259 3.17622
thorax -24.9052 1.30106 2.92104
lowerneck 4.97648 0.544778 2.82002
upperneck 38.817 -7.03768 11.6417
head 12.6916 -4.4514 2.86338
rclavicle 1.27222e-014 -2.46493e-014
rhumerus 88.8984 -33.8616 -2.91771
rradius 39.3139
rwrist -35.2278
rhand 9.68043 -4.01703
rfingers 7.12502
rthumb 34.8232 -30.6142
lclavicle 1.27222e-014 -2.46493e-014
lhumerus 3.04459 -33.8931 -36.7596
lradius 55.8435
lwrist 35.214
lhand -1.33547 -9.57214
lfingers 7.12502
lthumb 24.3106 18.9062
rfemur 27.0201 10.2857 22.446
rtibia 22.2409
rfoot 6.77864 -0.369714
rtoes 22.1443
lfemur 11.2648 1.27427 -25.4988
ltibia 39.3034
lfoot -0.365786 -0.13548
ltoes -3.49447
410
root 7.61192 8.84294 12.7812 83.4959 -3.89746 182.744
lowerback 16.1164 2.24628 0.272515
upperback -12.699 3.0796 3.10883
thorax -24.5305 1.4065 2.5013
lowerneck 4.0841 0.426764 2.67952
upperneck 39.2447 -7.35588 11.7462
head 13.1058 -4.54925 2.89735
rclavicle 3.49861e-014 6.20208e-014
rhumerus 88.104 -34.2771 -1.43546
rradius 39.1591
rwrist -35.3869
rhand 9.49888 -3.96434
rfingers 7.12502
rthumb 34.6509 -30.6012
lclavicle 3.49861e-014 6.20208e-014
lhumerus 2.16678 -35.8901 -35.6551
lradius 57.5352
lwrist 36.8368
lhand -0.602057 -9.29236
lfingers 7.12502
lthumb 25.0136 19.09
rfemur 27.3119 10.3415 22.3765
rtibia 22.0607
rfoot 7.38279 -0.0354902
rtoes 22.2464
lfemur 10.8533 0.854254 -25.6667
ltibia 38.3186
lfoot -0.261883 0.274934
ltoes -2.66177
411
root 7.60402 8.84915 12.7853 83.6637 -3.89128 182.78
lowerback 15.8905 2.4772 0.621439
upperback -12.5567 3.50512 3.02211
thorax -24.151 1.51724 2.03735
lowerneck 3.08254 0.297834 2.54938
upperneck 39.7449 -7.71644 11.8516
head 13.5937 -4.661 2.92373
rclavicle -2.70347e-014 -2.38542e-014
rhumerus 86.7881 -34.9859 0.790976
rradius 39.0923
rwrist -36.11
rhand 9.14796 -3.92967
rfingers 7.12502
rthumb 34.3178 -30.6423
lclavicle -2.70347e-014 -2.38542e-014
lhumerus 1.33025 -37.8411 -34.4968
lradius 59.2356
lwrist 38.1957
lhand 0.078765 -9.04488
lfingers 7.12502
lthumb 25.6658 19.245
rfemur 27.5826 10.3524 22.3116
rtibia 21.8679
rfoot 7.91585 0.147054
rtoes 22.4261
lfemur 10.5801 0.384064 -25.8435
ltibia 37.2148
lfoot -0.0980035 0.794227
ltoes -1.77387
412
root 7.59605 8.85623 12.7875 83.7787 -3.86379 182.806
lowerback 15.7275 2.71675 1.01678
upperback -12.3894 3.95351 2.91372
thorax -23.7696 1.63277 1.5168
lowerneck 1.97663 0.155806 2.43704
upperneck 40.3186 -8.12709 11.9562
head 14.1619 -4.79023 2.93879
rclavicle 1.74931e-014 8.74653e-015
rhumerus 85.3409 -35.6672 3.04717
rradius 39.0876
rwrist -36.6923
rhand 8.78228 -3.89191
rfingers 7.12502
rthumb 33.9705 -30.6822
lclavicle 1.74931e-014 8.74653e-015
lhumerus 0.557304 -39.7702 -33.3096
lradius 60.9215
lwrist 39.2094
lhand 0.652081 -8.87941
lfingers 7.12502
lthumb 26.2148 19.3301
rfemur 27.82 10.3195 22.2612
rtibia 21.6701
rfoot 8.37483 0.188126
rtoes 22.5951
lfemur 10.4479 -0.124637 -26.0189
ltibia 36.0053
lfoot 0.10787 1.4448
ltoes -0.905477
413
root 7.58808 8.86382 12.7877 83.8438 -3.80626 182.814
lowerback 15.6296 2.96778 1.47592
upperback -12.2021 4.43187 2.77971
thorax -23.3906 1.75312 0.923079
lowerneck 0.794348 -0.00181633 2.33936
upperneck 40.9416 -8.59467 12.0723
head 14.8011 -4.94062 2.94629
rclavicle 4.13472e-014 1.82882e-014
rhumerus 83.2225 -36.581 6.17269
rradius 39.2176
rwrist -37.84
rhand 8.24542 -3.88143
rfingers 7.12502
rthumb 33.4603 -30.7834
lclavicle 4.13472e-014 1.82882e-014
lhumerus -0.12166 -41.6772 -32.1146
lradius 62.5701
lwrist 39.8461
lhand 1.11195 -8.84359
lfingers 7.12502
lthumb 26.655 19.2998
rfemur 28.0089 10.2508 22.2375
rtibia 21.4749
rfoot 8.74085 0.0939717
rtoes 22.7713
lfemur 10.4514 -0.659034 -26.1838
ltibia 34.7083
lfoot 0.331679 2.25713
ltoes -0.0966979
414
root 7.58016 8.8715 12.7855 83.8539 -3.71393 182.804
lowerback 15.607 3.22158 1.99871
upperback -12.0028 4.92806 2.62421
thorax -23.0292 1.87379 0.265601
lowerneck -0.400079 -0.17002 2.26543
upperneck 41.5743 -9.10374 12.1952
head 15.4805 -5.10704 2.94353
rclavicle 1.59028e-014 -3.02153e-014
rhumerus 80.6785 -37.4871 9.72186
rradius 39.459
rwrist -39.1557
rhand 7.64719 -3.8929
rfingers 7.12502
rthumb 32.8915 -30.9159
lclavicle 1.59028e-014 -3.02153e-014
lhumerus -0.699178 -43.6055 -30.9471
lradius 64.1701
lwrist 40.1529
lhand 1.41863 -8.95505
lfingers 7.12502
lthumb 26.9485 19.1433
rfemur 28.1471 10.147 22.2462
rtibia 21.2867
rfoot 8.99832 -0.111259
rtoes 22.9391
lfemur 10.5891 -1.21239 -26.3358
ltibia 33.3517
lfoot 0.539952 3.25954
ltoes 0.59767
415
root 7.57229 8.87891 12.7802 83.7938 -3.58784 182.774
lowerback 15.6781 3.46862 2.57613
upperback -11.7962 5.42906 2.455
thorax -22.703 1.99109 -0.438276
lowerneck -1.54141 -0.341382 2.22784
upperneck 42.1789 -9.63071 12.314
head 16.1627 -5.2805 2.92563
rclavicle -7.31528e-014 -6.04305e-014
rhumerus 77.8012 -38.2899 13.561
rradius 39.7937
rwrist -40.5697
rhand 7.02728 -3.92081
rfingers 7.12502
rthumb 32.3017 -31.0658
lclavicle -7.31528e-014 -6.04305e-014
lhumerus -1.17477 -45.6053 -29.8323
lradius 65.7178
lwrist 40.1863
lhand 1.58588 -9.19855
lfingers 7.12502
lthumb 27.1085 18.875
rfemur 28.247 10.0097 22.2897
rtibia 21.109
rfoot 9.11579 -0.410245
rtoes 23.1237
lfemur 10.8683 -1.78021 -26.4828
ltibia 31.9684
lfoot 0.676571 4.48022
ltoes 1.16367
